<svg xmlns="http://www.w3.org/2000/svg" viewBox="-65.05 -27.50 512 512" role="img" aria-label="Crew Salon"><path fill="currentColor" fill-rule="evenodd" d="M191.04 9.09C130.81 16.88 81.91 50.45 55.62 102.05C42.15 128.49 36.16 155.69 37.34 185C38 201.52 39.77 212.58 44.01 226.89C62.07 287.66 114.63 334.59 178.5 346.96C193.76 349.92 211.52 351.02 226.61 349.95C240.09 349 257 346.27 257 345.05C257 344.64 256.12 343.51 255.05 342.54C253.18 340.85 252.69 340.85 243.8 342.56C230.94 345.03 204.06 345.07 191 342.65C151.26 335.27 116.76 310.36 92.76 271.72C86.21 261.17 81 249.87 75.98 235.32C70.74 220.12 68.28 207.68 66.93 189.51C63.07 137.52 79.93 88.23 112.98 54.88C139.95 27.67 173.69 13.99 213.85 14C244.21 14.01 266.7 20.59 290.43 36.39C313.7 51.88 336.18 80.97 342.15 103.28C343.78 109.38 345.22 109.36 344.55 103.25C344.27 100.64 343.28 87.6 342.35 74.29L340.65 50.07L333.08 44.65C305.06 24.61 279.39 14.13 247 9.53C235.57 7.9 202.23 7.64 191.04 9.09ZM192.5 144.05C169.3 147.19 148.23 158 137.4 172.3C116.73 199.61 122.28 234.54 150.67 255.85C159.45 262.44 176.07 270.95 208.5 285.45C250.24 304.12 266.93 313.91 281.02 327.98C295.26 342.21 300.76 356.22 299.78 375.76C298.43 402.62 280.8 424.82 252 435.93C230.38 444.27 200.95 445.23 177.22 438.38C151.05 430.82 127.19 412.68 117.89 393.25C116.2 389.72 114.25 387 113.41 387C112.15 387 111.94 389.33 112.05 402.06L112.19 417.11L118.34 421.62C154.22 447.88 210.25 456.3 253.98 442.01C285.82 431.6 310.63 407.37 318.13 379.35C320.92 368.95 321.14 350.42 318.6 341C316 331.42 311.64 322.94 305.01 314.6C291.25 297.28 269.68 284.16 221 263.49C172.5 242.9 154.83 230.52 148.04 212.38C138.14 185.92 153.77 159.78 184.5 151.39C192.4 149.23 214.79 148.41 223.69 149.95C240.81 152.92 255.42 160.35 265.69 171.32C272.92 179.06 276.05 184.3 279.07 193.75C280.35 197.74 281.81 201 282.32 201C282.88 201 282.97 193.57 282.55 182.25C281.75 160.6 282.57 162.32 270 156.01C261.09 151.53 249.52 147.75 237.93 145.53C227.75 143.58 202.16 142.75 192.5 144.05Z"/></svg>